<?xml version="1.0" encoding="utf-8"?>
<!-- Generator: Adobe Illustrator 27.5.0, SVG Export Plug-In . SVG Version: 6.00 Build 0)  -->
<svg version="1.1" xmlns="http://www.w3.org/2000/svg" xmlns:xlink="http://www.w3.org/1999/xlink" x="0px" y="0px"
	 viewBox="0 0 500 500" style="enable-background:new 0 0 500 500;" xml:space="preserve">
<g id="BACKGROUND">
	<rect style="fill-rule:evenodd;clip-rule:evenodd;fill:#F1F3F2;" width="500" height="500"/>
</g>
<g id="OBJECTS">
	<g>
		<rect x="303.412" y="276.094" style="fill-rule:evenodd;clip-rule:evenodd;fill:#145D25;" width="62.745" height="128.019"/>
		<g>
			<g>
				<path style="fill-rule:evenodd;clip-rule:evenodd;fill:#F8FFFE;" d="M288.07,145.902h-66.915l-7.519,12.423
					c-0.674,1.114-1.031,2.392-1.031,3.695v108.347c0,3.941,3.195,7.136,7.136,7.136h69.745c3.941,0,7.136-3.195,7.136-7.136V162.02
					c0-1.303-0.357-2.58-1.031-3.695L288.07,145.902z"/>
				<path style="fill-rule:evenodd;clip-rule:evenodd;fill:#D0C2CD;" d="M295.589,158.325l-7.519-12.423h-21.324l7.519,12.423
					c0.675,1.115,1.031,2.392,1.031,3.695v108.347c0,3.941-3.195,7.136-7.136,7.136h21.324c3.941,0,7.136-3.195,7.136-7.136V162.02
					C296.62,160.717,296.264,159.44,295.589,158.325z"/>
				<path style="fill:#400100;" d="M289.485,281.084H219.74c-5.91,0-10.717-4.807-10.717-10.717V162.02
					c0-1.956,0.536-3.875,1.548-5.549l8.565-14.15h70.953l8.564,14.15c1.013,1.674,1.549,3.593,1.549,5.549v108.346
					C300.202,276.276,295.394,281.084,289.485,281.084z M223.174,149.484l-6.474,10.696c-0.336,0.555-0.513,1.192-0.513,1.84
					v108.347c0,1.96,1.594,3.554,3.554,3.554h69.745c1.96,0,3.554-1.594,3.554-3.554V162.02c0-0.649-0.178-1.286-0.514-1.841
					l-6.474-10.696H223.174z"/>
			</g>
			<g>
				<path style="fill-rule:evenodd;clip-rule:evenodd;fill:#F8FFFE;" d="M223.76,130.121h61.705c1.926,0,3.488,1.562,3.488,3.488
					v12.293h-68.681v-12.293C220.272,131.682,221.834,130.121,223.76,130.121z"/>
				<path style="fill-rule:evenodd;clip-rule:evenodd;fill:#D0C2CD;" d="M286.455,130.121h-18.172v15.781h20.67v-13.283
					C288.953,131.239,287.835,130.121,286.455,130.121z"/>
				<path style="fill:#400100;" d="M292.534,149.484h-75.844v-16.864c0-3.353,2.727-6.08,6.079-6.08h63.684
					c3.353,0,6.08,2.727,6.08,6.08V149.484z M223.854,142.321h61.518v-8.619h-61.518V142.321z"/>
			</g>
			<g>
				<path style="fill-rule:evenodd;clip-rule:evenodd;fill:#F9BB00;" d="M296.62,264.119h-84.016v-97.177
					c0-2.718,2.204-4.922,4.922-4.922h74.171c2.719,0,4.922,2.204,4.922,4.922V264.119z"/>
				<path style="fill-rule:evenodd;clip-rule:evenodd;fill:#FA6432;" d="M293.095,162.02h-17.798v102.099h21.324v-98.573
					C296.62,163.599,295.042,162.02,293.095,162.02z"/>
				<path style="fill:#400100;" d="M300.202,267.701h-91.179V165.546c0-3.919,3.188-7.107,7.107-7.107h76.965
					c3.919,0,7.107,3.188,7.107,7.107V267.701z M216.186,260.538h76.853v-94.937h-76.853V260.538z"/>
			</g>
		</g>
		<g>
			<g>
				<path style="fill-rule:evenodd;clip-rule:evenodd;fill:#F8FFFE;" d="M271.231,276.094h-66.915l-7.519,12.423
					c-0.674,1.114-1.031,2.392-1.031,3.695v108.347c0,3.941,3.195,7.136,7.136,7.136h69.744c3.941,0,7.136-3.195,7.136-7.136
					V292.212c0-1.303-0.357-2.581-1.031-3.695L271.231,276.094z"/>
				<path style="fill-rule:evenodd;clip-rule:evenodd;fill:#D0C2CD;" d="M278.75,288.517l-7.519-12.423h-21.324l7.519,12.423
					c0.675,1.115,1.031,2.392,1.031,3.695v108.346c0,3.941-3.195,7.136-7.136,7.136h21.324c3.941,0,7.136-3.195,7.136-7.136V292.212
					C279.781,290.909,279.424,289.632,278.75,288.517z"/>
				<path style="fill:#400100;" d="M272.645,411.276h-69.745c-5.91,0-10.717-4.807-10.717-10.717V292.212
					c0-1.956,0.535-3.875,1.548-5.549l8.565-14.15h70.953l8.564,14.15c1.013,1.674,1.549,3.593,1.549,5.549v108.346
					C283.362,406.468,278.555,411.276,272.645,411.276z M206.334,279.675l-6.474,10.696c-0.336,0.555-0.513,1.192-0.513,1.84
					v108.347c0,1.96,1.594,3.554,3.554,3.554h69.745c1.96,0,3.554-1.594,3.554-3.554V292.212c0-0.649-0.178-1.286-0.514-1.841
					l-6.474-10.696H206.334z"/>
			</g>
			<g>
				<path style="fill-rule:evenodd;clip-rule:evenodd;fill:#F8FFFE;" d="M206.921,260.313h61.705c1.926,0,3.488,1.562,3.488,3.488
					v12.293h-68.681v-12.293C203.433,261.874,204.994,260.313,206.921,260.313z"/>
				<path style="fill-rule:evenodd;clip-rule:evenodd;fill:#D0C2CD;" d="M269.615,260.313h-18.171v15.781h20.67v-13.283
					C272.114,261.431,270.995,260.313,269.615,260.313z"/>
				<path style="fill:#400100;" d="M275.695,279.675h-75.844v-16.864c0-3.353,2.727-6.08,6.08-6.08h63.684
					c3.353,0,6.08,2.727,6.08,6.08V279.675z M207.014,272.513h61.518v-8.619h-61.518V272.513z"/>
			</g>
			<g>
				<path style="fill-rule:evenodd;clip-rule:evenodd;fill:#F9BB00;" d="M279.781,394.311h-84.016v-97.177
					c0-2.718,2.204-4.922,4.922-4.922h74.171c2.719,0,4.922,2.204,4.922,4.922V394.311z"/>
				<path style="fill-rule:evenodd;clip-rule:evenodd;fill:#FA6432;" d="M276.255,292.212h-17.799v102.099h21.324v-98.573
					C279.781,293.79,278.203,292.212,276.255,292.212z"/>
				<path style="fill:#400100;" d="M283.362,397.893h-91.179V295.737c0-3.919,3.188-7.107,7.107-7.107h76.965
					c3.919,0,7.107,3.188,7.107,7.107V397.893z M199.346,390.73H276.2v-94.937h-76.853V390.73z"/>
			</g>
		</g>
		<g>
			<g>
				<g>
					<path style="fill-rule:evenodd;clip-rule:evenodd;fill:#670306;" d="M211.611,223.965l-9.331-8.857
						c-7.174-6.809-11.236-16.266-11.236-26.156v-40.044h-35.367v40.044c0,9.891-4.062,19.347-11.236,26.156l-9.331,8.857
						c-5.45,5.173-8.536,12.356-8.536,19.87v148.318c0,8.108,6.573,14.682,14.682,14.682h64.209c8.108,0,14.682-6.573,14.682-14.682
						V243.835C220.146,236.321,217.06,229.138,211.611,223.965z"/>
					<path style="fill-rule:evenodd;clip-rule:evenodd;fill:#400100;" d="M211.611,223.965l-9.331-8.857
						c-7.174-6.809-11.236-16.266-11.236-26.156v-40.044H173.36v40.044c0,9.891,4.062,19.347,11.236,26.156l9.331,8.857
						c5.449,5.173,8.535,12.356,8.535,19.87v148.318c0,8.108-6.573,14.682-14.682,14.682h17.684c8.108,0,14.682-6.573,14.682-14.682
						V243.835C220.146,236.321,217.06,229.138,211.611,223.965z"/>
					<path style="fill:#400100;" d="M205.465,410.416h-64.209c-10.07,0-18.263-8.193-18.263-18.263V243.835
						c0-8.457,3.518-16.646,9.651-22.468l9.331-8.857c6.432-6.105,10.12-14.691,10.12-23.559v-43.625h42.53v43.625
						c0,8.867,3.689,17.454,10.12,23.559l9.331,8.857c6.133,5.822,9.651,14.011,9.651,22.467v148.318
						C223.728,402.223,215.535,410.416,205.465,410.416z M159.258,152.49v36.463c0,10.823-4.502,21.303-12.352,28.754l-9.331,8.857
						c-4.716,4.476-7.42,10.772-7.42,17.273v148.318c0,6.121,4.98,11.1,11.1,11.1h64.209c6.121,0,11.1-4.979,11.1-11.1V243.835
						c0-6.501-2.704-12.796-7.42-17.272h0l-9.331-8.857c-7.85-7.451-12.352-17.931-12.352-28.754V152.49H159.258z"/>
				</g>
				<g>
					<path style="fill-rule:evenodd;clip-rule:evenodd;fill:#FA3972;" d="M193.485,126.995h-40.249
						c-3.304,0-5.982,2.678-5.982,5.982v19.91c0,3.304,2.678,5.982,5.982,5.982h40.249c3.304,0,5.982-2.678,5.982-5.982v-19.91
						C199.466,129.673,196.788,126.995,193.485,126.995z"/>
					<path style="fill:#400100;" d="M193.485,162.45h-40.249c-5.273,0-9.563-4.29-9.563-9.563v-19.911
						c0-5.273,4.29-9.563,9.563-9.563h40.249c5.273,0,9.563,4.29,9.563,9.563v19.911C203.048,158.16,198.758,162.45,193.485,162.45z
						 M153.236,130.576c-1.324,0-2.401,1.077-2.401,2.4v19.911c0,1.323,1.077,2.4,2.401,2.4h40.249c1.323,0,2.4-1.077,2.4-2.4
						v-19.911c0-1.323-1.077-2.4-2.4-2.4H153.236z"/>
				</g>
				<g>
					<rect x="126.574" y="266.447" style="fill-rule:evenodd;clip-rule:evenodd;fill:#FA6C00;" width="93.572" height="63.031"/>
					<rect x="202.463" y="266.447" style="fill-rule:evenodd;clip-rule:evenodd;fill:#BD1E21;" width="17.684" height="63.031"/>
					<path style="fill:#400100;" d="M223.728,333.06H122.993v-70.194h100.735V333.06z M130.155,325.897h86.41v-55.868h-86.41
						V325.897z"/>
				</g>
			</g>
			<g>
				<rect x="155.677" y="158.869" style="fill-rule:evenodd;clip-rule:evenodd;fill:#F8FFFE;" width="35.367" height="20.413"/>
				<rect x="173.36" y="158.869" style="fill-rule:evenodd;clip-rule:evenodd;fill:#D0C2CD;" width="17.684" height="20.413"/>
				<path style="fill:#400100;" d="M194.625,182.863h-42.53v-27.576h42.53V182.863z M159.258,175.701h28.205V162.45h-28.205V175.701
					z"/>
			</g>
		</g>
		<g>
			<g>
				<path style="fill-rule:evenodd;clip-rule:evenodd;fill:#568F08;" d="M322.368,374.474c-4.83-35.017-4.634-70.545-1.162-105.722
					l11.661-118.145c0.298-3.017-1.907-5.705-4.924-6.003l-13.806-1.363c-3.017-0.298-5.705,1.907-6.003,4.924l-11.321,114.704
					c-3.59,36.376-10.493,72.447-22.208,107.071c-0.677,2.001-1.107,4.125-1.251,6.341c-0.826,12.732,8.392,24.125,21.018,25.961
					c14.009,2.038,26.73-8.034,28.105-21.965C322.672,378.302,322.628,376.357,322.368,374.474z"/>
				<path style="fill-rule:evenodd;clip-rule:evenodd;fill:#145D25;" d="M322.368,374.474c-4.83-35.017-4.634-70.545-1.162-105.722
					l11.661-118.145c0.298-3.017-1.907-5.705-4.924-6.003l-12.77-1.26c3.017,0.298,5.222,2.985,4.924,6.003l-11.661,118.145
					c-3.472,35.178-3.668,70.705,1.162,105.722c0.26,1.884,0.304,3.828,0.109,5.804c-1.118,11.329-9.741,20.106-20.459,21.893
					c1.628,0.617,3.34,1.073,5.123,1.333c14.009,2.037,26.731-8.034,28.105-21.965C322.672,378.302,322.628,376.357,322.368,374.474
					z"/>
				<path style="fill:#400100;" d="M295.195,405.95c-0.446-0.044-0.892-0.098-1.339-0.164
					c-14.446-2.101-25.022-15.163-24.076-29.737c0.162-2.485,0.644-4.927,1.433-7.257c10.817-31.972,18.231-67.728,22.036-106.275
					l11.321-114.704c0.491-4.978,4.941-8.628,9.919-8.136l13.806,1.363c4.978,0.491,8.628,4.941,8.137,9.918l-11.661,118.146
					c-3.687,37.352-3.301,72.64,1.146,104.881l0,0c0.302,2.189,0.344,4.426,0.125,6.646c-0.765,7.749-4.564,14.66-10.698,19.46
					C309.566,404.609,302.458,406.667,295.195,405.95z M313.784,146.805c-1.047-0.103-1.984,0.665-2.087,1.712l-11.321,114.704
					c-3.858,39.088-11.387,75.38-22.379,107.867c-0.589,1.74-0.949,3.565-1.07,5.426c-0.705,10.872,7.183,20.617,17.96,22.184
					c5.778,0.84,11.467-0.67,16.042-4.25c4.578-3.582,7.413-8.74,7.984-14.523c0.164-1.661,0.133-3.331-0.092-4.963v0
					c-4.524-32.798-4.921-68.651-1.179-106.563l11.661-118.146c0.103-1.047-0.665-1.983-1.712-2.087L313.784,146.805z"/>
			</g>
			<g>
				<path style="fill-rule:evenodd;clip-rule:evenodd;fill:#568F08;" d="M325.632,385.084c6.013-34.833,16.97-68.63,30.943-101.099
					l46.928-109.05c1.198-2.785-0.088-6.015-2.873-7.213l-12.743-5.484c-2.785-1.199-6.015,0.088-7.213,2.873l-45.561,105.874
					c-14.449,33.576-31.961,65.856-53.622,95.3c-1.252,1.701-2.305,3.595-3.114,5.664c-4.647,11.882,0.684,25.534,12.159,31.111
					c12.733,6.189,27.908,0.447,33.442-12.411C324.761,388.824,325.309,386.958,325.632,385.084z"/>
				<path style="fill-rule:evenodd;clip-rule:evenodd;fill:#145D25;" d="M325.632,385.084c6.013-34.833,16.97-68.63,30.943-101.099
					l46.928-109.05c1.198-2.785-0.088-6.015-2.873-7.213l-11.787-5.072c2.785,1.199,4.071,4.428,2.873,7.213l-46.928,109.05
					c-13.973,32.47-24.93,66.266-30.942,101.099c-0.323,1.874-0.871,3.74-1.656,5.564c-4.5,10.457-15.378,16.207-26.133,14.66
					c1.365,1.082,2.857,2.035,4.478,2.823c12.733,6.189,27.908,0.447,33.442-12.411
					C324.761,388.824,325.309,386.958,325.632,385.084z"/>
				<path style="fill:#400100;" d="M290.196,406.842c-0.412-0.177-0.82-0.364-1.227-0.562c-13.13-6.381-19.248-22.035-13.928-35.636
					c0.907-2.319,2.107-4.5,3.565-6.482c20.001-27.188,37.905-59.014,53.217-94.594l45.562-105.874
					c1.977-4.594,7.324-6.724,11.918-4.746l12.743,5.484c4.595,1.977,6.724,7.324,4.747,11.918l-46.929,109.051
					c-14.837,34.477-25.167,68.22-30.703,100.293l0,0c-0.376,2.178-1.013,4.322-1.895,6.371
					c-3.078,7.152-8.794,12.586-16.094,15.301C304.297,409.921,296.9,409.727,290.196,406.842z M386.471,165.527
					c-0.967-0.416-2.092,0.032-2.508,0.998L338.402,272.4c-15.526,36.079-33.703,68.381-54.026,96.007
					c-1.089,1.479-1.985,3.109-2.664,4.846c-3.968,10.147,0.595,21.825,10.389,26.585c5.251,2.552,11.13,2.838,16.575,0.813
					c5.448-2.026,9.714-6.081,12.011-11.419c0.66-1.533,1.136-3.134,1.416-4.757l0,0c5.632-32.626,16.123-66.912,31.182-101.906
					l46.929-109.051c0.416-0.967-0.032-2.092-0.999-2.508L386.471,165.527z"/>
			</g>
			<g>
				<path style="fill-rule:evenodd;clip-rule:evenodd;fill:#568F08;" d="M324.139,378.454c0.712-35.341,6.468-70.4,15.405-104.6
					l30.015-114.862c0.767-2.934-0.99-5.933-3.924-6.7l-13.422-3.508c-2.934-0.767-5.933,0.99-6.7,3.924l-29.141,111.517
					c-9.242,35.365-21.706,69.91-38.698,102.274c-0.982,1.87-1.739,3.901-2.228,6.067c-2.81,12.445,4.511,25.141,16.694,28.932
					c13.518,4.206,27.659-3.75,31.198-17.293C323.84,382.283,324.101,380.356,324.139,378.454z"/>
				<path style="fill-rule:evenodd;clip-rule:evenodd;fill:#145D25;" d="M324.139,378.454c0.712-35.341,6.468-70.4,15.405-104.6
					l30.015-114.862c0.767-2.934-0.99-5.933-3.924-6.7l-12.415-3.244c2.933,0.767,4.69,3.766,3.924,6.7L327.129,270.61
					c-8.937,34.2-14.693,69.259-15.405,104.6c-0.038,1.901-0.299,3.828-0.801,5.75c-2.878,11.015-12.769,18.333-23.634,18.419
					c1.511,0.865,3.131,1.583,4.851,2.118c13.518,4.206,27.659-3.75,31.198-17.293C323.84,382.283,324.101,380.356,324.139,378.454z
					"/>
				<path style="fill:#400100;" d="M292.374,405.288c-0.434-0.113-0.866-0.237-1.297-0.371
					c-13.939-4.337-22.339-18.893-19.123-33.14c0.549-2.429,1.407-4.765,2.551-6.944c15.69-29.884,28.611-64.038,38.404-101.514
					l29.141-111.517c1.265-4.839,6.231-7.747,11.07-6.483l13.422,3.507c4.84,1.265,7.748,6.23,6.483,11.07L343.009,274.76
					c-9.49,36.314-14.634,71.227-15.29,103.766l0,0c-0.044,2.21-0.353,4.425-0.917,6.583c-1.969,7.534-6.803,13.765-13.613,17.545
					C306.778,406.214,299.435,407.133,292.374,405.288z M351.308,152.25c-1.018-0.266-2.063,0.346-2.329,1.364l-29.141,111.517
					c-9.93,38.002-23.049,72.668-38.992,103.033c-0.854,1.626-1.495,3.372-1.906,5.192c-2.399,10.628,3.867,21.488,14.265,24.723
					c5.575,1.734,11.431,1.134,16.509-1.686c5.082-2.821,8.69-7.471,10.16-13.094c0.422-1.614,0.652-3.269,0.686-4.916l0,0
					c0.667-33.102,5.889-68.575,15.52-105.433l30.015-114.863c0.266-1.018-0.346-2.063-1.364-2.329L351.308,152.25z"/>
			</g>
		</g>
		<g>
			<path style="fill:#400100;" d="M249.912,169.944c-1.188-1.707-3.582-2.049-5.198-0.74
				c-17.576,14.242-19.638,34.728-19.722,35.639l7.133,0.649c0.017-0.192,1.841-18.329,17.099-30.722
				C250.682,173.588,250.985,171.484,249.912,169.944z"/>
			<g>
				<path style="fill-rule:evenodd;clip-rule:evenodd;fill:#FA3972;" d="M259.939,241.666c4.488-17.473-2.61-35.093-16.566-41.171
					c-3.346-1.457-6.805-2.156-10.253-2.198c-1.547-0.019-3.057-0.497-4.333-1.373c-2.843-1.951-6.073-3.372-9.648-4.107
					c-14.91-3.066-30.859,7.252-37.251,24.122c-7.631,20.139,0.631,41.514,17.645,46.904c0.738,0.234,1.479,0.433,2.223,0.598
					c4.993,1.111,9.864,2.654,14.586,4.621c0.704,0.293,1.424,0.557,2.162,0.791C235.519,275.244,254.581,262.525,259.939,241.666z"
					/>
				<path style="fill-rule:evenodd;clip-rule:evenodd;fill:#BF163E;" d="M259.939,241.666c3.61-14.055-0.281-28.2-9.203-36.361
					c0.905,5.426,0.704,11.268-0.793,17.095c-5.357,20.859-24.42,33.578-41.434,28.188c-0.738-0.234-1.458-0.498-2.162-0.791
					c-4.722-1.967-9.593-3.51-14.586-4.621c-0.744-0.165-1.485-0.365-2.223-0.598c-3.783-1.198-7.129-3.19-9.968-5.779
					c1.955,11.836,9.206,21.638,19.964,25.046c0.738,0.234,1.479,0.433,2.223,0.598c4.993,1.111,9.864,2.654,14.586,4.621
					c0.704,0.293,1.424,0.557,2.162,0.791C235.519,275.244,254.581,262.525,259.939,241.666z"/>
				<path style="fill:#400100;" d="M217.423,273.268c-0.83-0.263-1.657-0.565-2.457-0.898c-4.512-1.879-9.217-3.37-13.987-4.431
					c-0.846-0.189-1.696-0.417-2.526-0.68c-8.213-2.602-14.96-8.629-19-16.973c-5.001-10.329-5.334-22.946-0.912-34.615
					c6.986-18.436,24.75-29.769,41.321-26.361c3.943,0.811,7.627,2.379,10.953,4.662c0.695,0.477,1.507,0.734,2.35,0.745
					c4.034,0.049,7.95,0.889,11.64,2.495c15.511,6.756,23.509,26.249,18.604,45.345l0,0c-3.104,12.086-10.641,22.21-20.677,27.775
					C234.624,274.828,225.636,275.87,217.423,273.268z M210.232,263.02c2.537,0.804,5.038,1.718,7.487,2.738
					c0.607,0.253,1.236,0.483,1.867,0.683c6.317,2.001,13.303,1.159,19.671-2.372c8.322-4.615,14.597-13.105,17.213-23.293l0,0
					c4.039-15.726-2.206-31.63-14.527-36.996c-2.809-1.224-5.793-1.863-8.866-1.9c-2.265-0.028-4.449-0.719-6.316-2.001
					c-2.535-1.739-5.343-2.936-8.343-3.551c-13.163-2.707-27.427,6.7-33.18,21.882c-3.727,9.837-3.486,20.391,0.661,28.956
					c3.173,6.553,8.399,11.264,14.717,13.266c0.631,0.2,1.277,0.374,1.92,0.517C205.124,261.523,207.696,262.216,210.232,263.02z"/>
			</g>
			<g>
				<path style="fill-rule:evenodd;clip-rule:evenodd;fill:#568F08;" d="M216.185,165.371L216.185,165.371
					c-3.972,12.539,2.972,25.924,15.511,29.896l0,0C235.669,182.728,228.724,169.344,216.185,165.371z"/>
				<path style="fill:#400100;" d="M217.267,161.957L217.267,161.957c-1.886-0.597-3.898,0.447-4.496,2.332l0,0
					c-4.57,14.424,3.419,29.822,17.844,34.392l3.414,1.082l1.082-3.414C239.68,181.925,231.691,166.527,217.267,161.957z
					 M218.773,170.359c7.123,3.929,11.225,11.836,10.336,19.921C221.986,186.351,217.883,178.444,218.773,170.359z"/>
			</g>
		</g>
		<g>
			<path style="fill:#400100;" d="M282.936,173.22c-1.776-1.082-4.104-0.429-5.054,1.421c-10.334,20.123-3.953,39.699-3.661,40.567
				l6.789-2.285c-0.062-0.183-5.713-17.513,3.246-35.01C285.111,176.243,284.539,174.196,282.936,173.22z"/>
			<g>
				<path style="fill-rule:evenodd;clip-rule:evenodd;fill:#FA3972;" d="M321.055,234.796
					c-2.945-17.798-16.551-31.055-31.772-30.984c-3.65,0.017-7.096,0.774-10.268,2.127c-1.423,0.607-2.998,0.779-4.518,0.493
					c-3.389-0.638-6.917-0.634-10.485,0.136c-14.879,3.211-25.307,19.089-24.348,37.103c1.146,21.506,17.331,37.729,35.073,35.794
					c0.769-0.084,1.528-0.201,2.275-0.35c5.017-0.998,10.096-1.552,15.21-1.659c0.762-0.016,1.528-0.065,2.297-0.149
					C312.263,275.373,324.571,256.043,321.055,234.796z"/>
				<path style="fill-rule:evenodd;clip-rule:evenodd;fill:#BF163E;" d="M321.055,234.796
					c-2.369-14.316-11.638-25.688-23.094-29.555c3.018,4.6,5.191,10.025,6.173,15.961c3.516,21.247-8.792,40.577-26.535,42.512
					c-0.769,0.084-1.535,0.133-2.297,0.149c-5.114,0.107-10.193,0.66-15.211,1.659c-0.747,0.149-1.506,0.266-2.275,0.35
					c-3.944,0.43-7.81-0.042-11.453-1.265c6.565,10.041,17.156,16.082,28.374,14.859c0.769-0.084,1.528-0.201,2.275-0.35
					c5.017-0.998,10.096-1.552,15.21-1.659c0.762-0.016,1.528-0.065,2.297-0.149C312.263,275.373,324.571,256.043,321.055,234.796z"
					/>
				<path style="fill:#400100;" d="M294.908,280.868c-0.866,0.094-1.744,0.151-2.611,0.17c-4.886,0.102-9.794,0.637-14.586,1.59
					c-0.851,0.169-1.72,0.303-2.586,0.397c-8.564,0.934-17.17-1.858-24.234-7.861c-8.744-7.433-14.14-18.842-14.804-31.303
					c-1.049-19.688,10.631-37.225,27.168-40.795c3.935-0.849,7.939-0.901,11.903-0.155c0.828,0.156,1.675,0.064,2.45-0.267
					c3.711-1.583,7.633-2.395,11.657-2.414c16.918-0.079,32.103,14.529,35.322,33.98l0,0c2.038,12.311-0.773,24.615-7.71,33.757
					C311.276,275.353,303.473,279.934,294.908,280.868z M284.193,274.393c2.646-0.288,5.303-0.461,7.955-0.517
					c0.658-0.014,1.325-0.057,1.984-0.129c6.588-0.718,12.639-4.308,17.04-10.109c5.752-7.581,8.067-17.881,6.349-28.258l0,0
					c-2.651-16.018-14.784-28.05-28.222-27.987c-3.064,0.014-6.052,0.633-8.879,1.84c-2.083,0.889-4.361,1.137-6.586,0.718
					c-3.021-0.568-6.073-0.53-9.067,0.118c-13.136,2.835-22.391,17.199-21.527,33.412c0.56,10.504,5.039,20.063,12.291,26.226
					c5.548,4.715,12.231,6.917,18.818,6.198c0.658-0.072,1.319-0.173,1.965-0.302C278.915,275.086,281.548,274.682,284.193,274.393z
					"/>
			</g>
			<g>
				<path style="fill-rule:evenodd;clip-rule:evenodd;fill:#568F08;" d="M250.232,182.647L250.232,182.647
					c1.426,13.076,13.181,22.52,26.257,21.094l0,0C275.064,190.665,263.308,181.221,250.232,182.647z"/>
				<path style="fill:#400100;" d="M249.844,179.087L249.844,179.087c-1.966,0.214-3.386,1.982-3.172,3.948l0,0
					c1.64,15.042,15.164,25.906,30.206,24.266l3.56-0.388l-0.388-3.56C278.409,188.311,264.886,177.447,249.844,179.087z
					 M254.612,186.166c8.103,0.72,15.047,6.299,17.497,14.056C264.006,199.502,257.062,193.923,254.612,186.166z"/>
			</g>
		</g>
		<g>
			<path style="fill-rule:evenodd;clip-rule:evenodd;fill:#FA3972;" d="M120.391,251.399v148.725
				c0,8.217,6.661,14.878,14.878,14.878H364.73c8.217,0,14.878-6.661,14.878-14.878V251.399H120.391z M161.545,387.45
				c0,4.477-3.629,8.106-8.106,8.106c-4.477,0-8.106-3.629-8.106-8.106v-29.565c0-4.477,3.629-8.106,8.106-8.106
				c4.477,0,8.106,3.629,8.106,8.106V387.45z M161.545,325.897c0,4.477-3.629,8.106-8.106,8.106c-4.477,0-8.106-3.629-8.106-8.106
				v-29.565c0-4.477,3.629-8.106,8.106-8.106c4.477,0,8.106,3.629,8.106,8.106V325.897z M200.169,387.45
				c0,4.477-3.629,8.106-8.106,8.106c-4.477,0-8.106-3.629-8.106-8.106v-29.565c0-4.477,3.629-8.106,8.106-8.106
				c4.477,0,8.106,3.629,8.106,8.106V387.45z M200.169,325.897c0,4.477-3.629,8.106-8.106,8.106c-4.477,0-8.106-3.629-8.106-8.106
				v-29.565c0-4.477,3.629-8.106,8.106-8.106c4.477,0,8.106,3.629,8.106,8.106V325.897z M238.794,387.45
				c0,4.477-3.629,8.106-8.106,8.106c-4.477,0-8.106-3.629-8.106-8.106v-29.565c0-4.477,3.629-8.106,8.106-8.106
				c4.477,0,8.106,3.629,8.106,8.106V387.45z M277.419,387.45c0,4.477-3.629,8.106-8.106,8.106c-4.477,0-8.106-3.629-8.106-8.106
				v-29.565c0-4.477,3.629-8.106,8.106-8.106c4.477,0,8.106,3.629,8.106,8.106V387.45z M316.043,387.45
				c0,4.477-3.629,8.106-8.106,8.106c-4.477,0-8.106-3.629-8.106-8.106v-29.565c0-4.477,3.629-8.106,8.106-8.106
				c4.477,0,8.106,3.629,8.106,8.106V387.45z M316.043,325.897c0,4.477-3.629,8.106-8.106,8.106c-4.477,0-8.106-3.629-8.106-8.106
				v-29.565c0-4.477,3.629-8.106,8.106-8.106c4.477,0,8.106,3.629,8.106,8.106V325.897z M354.668,387.45
				c0,4.477-3.629,8.106-8.106,8.106c-4.477,0-8.106-3.629-8.106-8.106v-29.565c0-4.477,3.629-8.106,8.106-8.106
				c4.477,0,8.106,3.629,8.106,8.106V387.45z M354.668,325.897c0,4.477-3.629,8.106-8.106,8.106c-4.477,0-8.106-3.629-8.106-8.106
				v-29.565c0-4.477,3.629-8.106,8.106-8.106c4.477,0,8.106,3.629,8.106,8.106V325.897z"/>
			<path style="fill-rule:evenodd;clip-rule:evenodd;fill:#BF163E;" d="M364.73,398.454H135.269
				c-8.217,0-14.878-6.661-14.878-14.878v16.548c0,8.217,6.661,14.878,14.878,14.878H364.73c8.217,0,14.878-6.661,14.878-14.878
				v-16.548C379.609,391.793,372.947,398.454,364.73,398.454z"/>
			<path style="fill-rule:evenodd;clip-rule:evenodd;fill:#BF163E;" d="M120.391,291.807h26.321c1.456-2.16,3.925-3.581,6.726-3.581
				c2.801,0,5.27,1.421,6.726,3.581h25.172c1.456-2.16,3.925-3.581,6.726-3.581c2.801,0,5.27,1.421,6.726,3.581H301.21
				c1.456-2.16,3.925-3.581,6.726-3.581c2.801,0,5.27,1.421,6.726,3.581h25.172c1.456-2.16,3.925-3.581,6.726-3.581
				c2.801,0,5.27,1.421,6.726,3.581h26.321v-40.408H120.391V291.807z"/>
			<path style="fill:#400100;" d="M364.73,418.584H135.27c-10.179,0-18.46-8.281-18.46-18.459V247.818h266.38v152.307
				C383.19,410.303,374.909,418.584,364.73,418.584z M123.972,254.981v145.144c0,6.229,5.068,11.297,11.297,11.297H364.73
				c6.229,0,11.297-5.068,11.297-11.297V254.981H123.972z M346.561,399.138c-6.445,0-11.688-5.243-11.688-11.688v-29.565
				c0-6.445,5.243-11.688,11.688-11.688c6.445,0,11.688,5.243,11.688,11.688v29.565
				C358.249,393.895,353.006,399.138,346.561,399.138z M346.561,353.361c-2.495,0-4.525,2.03-4.525,4.525v29.565
				c0,2.495,2.03,4.525,4.525,4.525c2.495,0,4.525-2.03,4.525-4.525v-29.565C351.086,355.391,349.057,353.361,346.561,353.361z
				 M307.937,399.138c-6.445,0-11.688-5.243-11.688-11.688v-29.565c0-6.445,5.243-11.688,11.688-11.688
				c6.445,0,11.688,5.243,11.688,11.688v29.565C319.624,393.895,314.381,399.138,307.937,399.138z M307.937,353.361
				c-2.495,0-4.525,2.03-4.525,4.525v29.565c0,2.495,2.03,4.525,4.525,4.525c2.495,0,4.525-2.03,4.525-4.525v-29.565
				C312.462,355.391,310.432,353.361,307.937,353.361z M269.312,399.138c-6.445,0-11.688-5.243-11.688-11.688v-29.565
				c0-6.445,5.243-11.688,11.688-11.688c6.445,0,11.688,5.243,11.688,11.688v29.565C281,393.895,275.757,399.138,269.312,399.138z
				 M269.312,353.361c-2.495,0-4.525,2.03-4.525,4.525v29.565c0,2.495,2.03,4.525,4.525,4.525c2.495,0,4.525-2.03,4.525-4.525
				v-29.565C273.837,355.391,271.807,353.361,269.312,353.361z M230.688,399.138c-6.445,0-11.688-5.243-11.688-11.688v-29.565
				c0-6.445,5.243-11.688,11.688-11.688c6.445,0,11.688,5.243,11.688,11.688v29.565
				C242.375,393.895,237.132,399.138,230.688,399.138z M230.688,353.361c-2.495,0-4.525,2.03-4.525,4.525v29.565
				c0,2.495,2.03,4.525,4.525,4.525c2.495,0,4.525-2.03,4.525-4.525v-29.565C235.213,355.391,233.183,353.361,230.688,353.361z
				 M192.063,399.138c-6.445,0-11.688-5.243-11.688-11.688v-29.565c0-6.445,5.243-11.688,11.688-11.688
				c6.445,0,11.688,5.243,11.688,11.688v29.565C203.751,393.895,198.508,399.138,192.063,399.138z M192.063,353.361
				c-2.495,0-4.525,2.03-4.525,4.525v29.565c0,2.495,2.03,4.525,4.525,4.525c2.495,0,4.525-2.03,4.525-4.525v-29.565
				C196.588,355.391,194.558,353.361,192.063,353.361z M153.438,399.138c-6.445,0-11.688-5.243-11.688-11.688v-29.565
				c0-6.445,5.243-11.688,11.688-11.688c6.445,0,11.688,5.243,11.688,11.688v29.565
				C165.126,393.895,159.883,399.138,153.438,399.138z M153.438,353.361c-2.495,0-4.525,2.03-4.525,4.525v29.565
				c0,2.495,2.03,4.525,4.525,4.525c2.495,0,4.525-2.03,4.525-4.525v-29.565C157.964,355.391,155.934,353.361,153.438,353.361z
				 M346.561,337.585c-6.445,0-11.688-5.243-11.688-11.688v-29.564c0-6.445,5.243-11.688,11.688-11.688
				c6.445,0,11.688,5.243,11.688,11.688v29.564C358.249,332.342,353.006,337.585,346.561,337.585z M346.561,291.807
				c-2.495,0-4.525,2.03-4.525,4.525v29.564c0,2.495,2.03,4.525,4.525,4.525c2.495,0,4.525-2.03,4.525-4.525v-29.564
				C351.086,293.837,349.057,291.807,346.561,291.807z M307.937,337.585c-6.445,0-11.688-5.243-11.688-11.688v-29.564
				c0-6.445,5.243-11.688,11.688-11.688c6.445,0,11.688,5.243,11.688,11.688v29.564
				C319.624,332.342,314.381,337.585,307.937,337.585z M307.937,291.807c-2.495,0-4.525,2.03-4.525,4.525v29.564
				c0,2.495,2.03,4.525,4.525,4.525c2.495,0,4.525-2.03,4.525-4.525v-29.564C312.462,293.837,310.432,291.807,307.937,291.807z
				 M192.063,337.585c-6.445,0-11.688-5.243-11.688-11.688v-29.564c0-6.445,5.243-11.688,11.688-11.688
				c6.445,0,11.688,5.243,11.688,11.688v29.564C203.751,332.342,198.508,337.585,192.063,337.585z M192.063,291.807
				c-2.495,0-4.525,2.03-4.525,4.525v29.564c0,2.495,2.03,4.525,4.525,4.525c2.495,0,4.525-2.03,4.525-4.525v-29.564
				C196.588,293.837,194.558,291.807,192.063,291.807z M153.438,337.585c-6.445,0-11.688-5.243-11.688-11.688v-29.564
				c0-6.445,5.243-11.688,11.688-11.688c6.445,0,11.688,5.243,11.688,11.688v29.564
				C165.126,332.342,159.883,337.585,153.438,337.585z M153.438,291.807c-2.495,0-4.525,2.03-4.525,4.525v29.564
				c0,2.495,2.03,4.525,4.525,4.525c2.495,0,4.525-2.03,4.525-4.525v-29.564C157.964,293.837,155.934,291.807,153.438,291.807z"/>
		</g>
		<g>
			<path style="fill-rule:evenodd;clip-rule:evenodd;fill:#F9BB00;" d="M386.925,274.393h-273.85
				c-6.508,0-11.784-5.276-11.784-11.784v-19.555c0-6.508,5.276-11.784,11.784-11.784h273.85c6.508,0,11.784,5.276,11.784,11.784
				v19.555C398.709,269.117,393.433,274.393,386.925,274.393z"/>
			<path style="fill-rule:evenodd;clip-rule:evenodd;fill:#FA6432;" d="M386.715,260.064h-273.43
				c-6.624,0-11.994-5.37-11.994-11.994v14.329c0,6.624,5.37,11.994,11.994,11.994h273.43c6.624,0,11.994-5.37,11.994-11.994V248.07
				C398.709,254.694,393.339,260.064,386.715,260.064z"/>
			<path style="fill:#400100;" d="M386.715,277.974h-273.43c-8.588,0-15.575-6.987-15.575-15.575v-19.135
				c0-8.589,6.987-15.576,15.575-15.576h273.43c8.588,0,15.575,6.987,15.575,15.576v19.135
				C402.29,270.987,395.303,277.974,386.715,277.974z M113.285,234.851c-4.639,0-8.413,3.774-8.413,8.413v19.135
				c0,4.639,3.774,8.413,8.413,8.413h273.43c4.638,0,8.413-3.774,8.413-8.413v-19.135c0-4.639-3.774-8.413-8.413-8.413H113.285z"/>
		</g>
		<g>
			<g>
				<g>
					<path style="fill-rule:evenodd;clip-rule:evenodd;fill:#F9BB00;" d="M81.635,352.504c4.376,4.376,11.471,4.376,15.848,0
						l91.298-91.298c4.376-4.376,4.376-11.471,0-15.848c-4.376-4.376-11.471-4.376-15.848,0l-91.298,91.298
						C77.259,341.032,77.259,348.128,81.635,352.504z"/>
					<path style="fill:#400100;" d="M89.559,359.36c-3.787,0-7.573-1.441-10.456-4.324c-2.793-2.793-4.331-6.506-4.331-10.456
						c0-3.95,1.538-7.663,4.331-10.456l91.298-91.298c5.766-5.765,15.147-5.764,20.912,0c2.793,2.793,4.331,6.507,4.331,10.456
						c0,3.95-1.538,7.663-4.331,10.456l-91.297,91.298C97.133,357.919,93.345,359.36,89.559,359.36z M180.857,245.661
						c-1.952,0-3.905,0.743-5.391,2.23l-91.298,91.298c-1.44,1.44-2.233,3.355-2.233,5.391s0.793,3.951,2.233,5.391
						c2.973,2.974,7.81,2.973,10.783,0l91.298-91.298c1.44-1.44,2.233-3.355,2.233-5.391s-0.793-3.951-2.233-5.391
						C184.762,246.404,182.809,245.661,180.857,245.661z"/>
				</g>
				<g>
					<path style="fill-rule:evenodd;clip-rule:evenodd;fill:#400100;" d="M182.124,252.015c1.731,1.731,1.731,4.538,0,6.269
						c-1.731,1.731-4.538,1.731-6.269,0c-1.731-1.731-1.731-4.538,0-6.269C177.586,250.284,180.393,250.284,182.124,252.015z"/>
				</g>
			</g>
			<g>
				<g>
					<path style="fill-rule:evenodd;clip-rule:evenodd;fill:#F9BB00;" d="M418.364,352.504c-4.376,4.376-11.471,4.376-15.848,0
						l-91.298-91.298c-4.376-4.376-4.376-11.471,0-15.848c4.376-4.376,11.471-4.376,15.848,0l91.298,91.298
						C422.741,341.032,422.741,348.128,418.364,352.504z"/>
					<path style="fill:#400100;" d="M410.44,359.36c-3.787,0-7.573-1.441-10.456-4.324l-91.298-91.298
						c-2.793-2.793-4.331-6.506-4.331-10.456c0-3.95,1.538-7.663,4.331-10.456c5.766-5.765,15.147-5.765,20.912,0l91.298,91.298
						c2.793,2.793,4.331,6.506,4.331,10.456c0,3.95-1.538,7.663-4.332,10.456h0C418.014,357.919,414.227,359.36,410.44,359.36z
						 M319.143,245.661c-1.953,0-3.905,0.743-5.391,2.23c-1.44,1.44-2.234,3.355-2.234,5.391s0.793,3.951,2.233,5.391l91.298,91.298
						c2.973,2.972,7.811,2.974,10.783,0h0c1.44-1.44,2.233-3.355,2.233-5.391s-0.793-3.951-2.233-5.391l-91.298-91.298
						C323.048,246.404,321.095,245.661,319.143,245.661z"/>
				</g>
				<g>
					<path style="fill-rule:evenodd;clip-rule:evenodd;fill:#400100;" d="M317.876,252.015c-1.731,1.731-1.731,4.538,0,6.269
						c1.731,1.731,4.538,1.731,6.269,0c1.731-1.731,1.731-4.538,0-6.269C322.414,250.284,319.607,250.284,317.876,252.015z"/>
				</g>
			</g>
		</g>
	</g>
	<g>
		<path style="fill:#D0C2CD;" d="M450.362,213.857c-7.772,0-14.094-6.323-14.094-14.094s6.322-14.094,14.094-14.094
			c7.772,0,14.094,6.323,14.094,14.094S458.134,213.857,450.362,213.857z M450.362,192.831c-3.822,0-6.931,3.11-6.931,6.932
			c0,3.822,3.109,6.932,6.931,6.932c3.822,0,6.932-3.109,6.932-6.932C457.294,195.941,454.185,192.831,450.362,192.831z"/>
		<path style="fill:#D0C2CD;" d="M59.768,209.362c-7.771,0-14.094-6.323-14.094-14.094s6.323-14.094,14.094-14.094
			s14.094,6.323,14.094,14.094S67.539,209.362,59.768,209.362z M59.768,188.336c-3.822,0-6.931,3.11-6.931,6.932
			c0,3.822,3.109,6.931,6.931,6.931c3.822,0,6.932-3.109,6.932-6.931C66.7,191.445,63.59,188.336,59.768,188.336z"/>
		<path style="fill:#D0C2CD;" d="M256.008,76.226c-7.771,0-14.094-6.323-14.094-14.094s6.323-14.094,14.094-14.094
			c7.772,0,14.095,6.323,14.095,14.094S263.779,76.226,256.008,76.226z M256.008,55.2c-3.822,0-6.931,3.11-6.931,6.932
			c0,3.822,3.11,6.931,6.931,6.931c3.822,0,6.932-3.11,6.932-6.931C262.94,58.31,259.83,55.2,256.008,55.2z"/>
		<g>
			<g>
				<path style="fill:#D0C2CD;" d="M99.105,71.244c-1.978,0-3.581,1.603-3.581,3.581v3.234c0,1.978,1.603,3.581,3.581,3.581
					c1.978,0,3.581-1.603,3.581-3.581v-3.234C102.686,72.847,101.083,71.244,99.105,71.244z"/>
				<path style="fill:#D0C2CD;" d="M99.105,95.075c-1.978,0-3.581,1.603-3.581,3.581v3.234c0,1.978,1.603,3.581,3.581,3.581
					c1.978,0,3.581-1.603,3.581-3.581v-3.234C102.686,96.678,101.083,95.075,99.105,95.075z"/>
			</g>
			<g>
				<path style="fill:#D0C2CD;" d="M116.219,88.358c0-1.978-1.603-3.581-3.581-3.581h-3.234c-1.978,0-3.581,1.603-3.581,3.581
					c0,1.978,1.603,3.581,3.581,3.581h3.234C114.615,91.939,116.219,90.336,116.219,88.358z"/>
				<path style="fill:#D0C2CD;" d="M92.388,88.358c0-1.978-1.603-3.581-3.581-3.581h-3.234c-1.978,0-3.581,1.603-3.581,3.581
					c0,1.978,1.603,3.581,3.581,3.581h3.234C90.785,91.939,92.388,90.336,92.388,88.358z"/>
			</g>
		</g>
		<g>
			<g>
				<path style="fill:#D0C2CD;" d="M450.363,272.122c-1.978,0-3.581,1.603-3.581,3.581v3.234c0,1.978,1.603,3.581,3.581,3.581
					s3.581-1.603,3.581-3.581v-3.234C453.944,273.725,452.34,272.122,450.363,272.122z"/>
				<path style="fill:#D0C2CD;" d="M450.363,295.953c-1.978,0-3.581,1.603-3.581,3.581v3.234c0,1.978,1.603,3.581,3.581,3.581
					s3.581-1.603,3.581-3.581v-3.234C453.944,297.556,452.34,295.953,450.363,295.953z"/>
			</g>
			<g>
				<path style="fill:#D0C2CD;" d="M467.476,289.236c0-1.978-1.603-3.581-3.581-3.581h-3.234c-1.978,0-3.581,1.603-3.581,3.581
					s1.603,3.581,3.581,3.581h3.234C465.873,292.817,467.476,291.214,467.476,289.236z"/>
				<path style="fill:#D0C2CD;" d="M443.646,289.236c0-1.978-1.603-3.581-3.581-3.581h-3.234c-1.978,0-3.581,1.603-3.581,3.581
					s1.603,3.581,3.581,3.581h3.234C442.042,292.817,443.646,291.214,443.646,289.236z"/>
			</g>
		</g>
		<g>
			<g>
				<path style="fill:#D0C2CD;" d="M389.524,83.44c-1.399-1.399-3.666-1.399-5.065,0l-2.287,2.287c-1.399,1.399-1.399,3.666,0,5.065
					c1.399,1.399,3.666,1.399,5.065,0l2.287-2.287C390.923,87.106,390.923,84.839,389.524,83.44z"/>
				<path style="fill:#D0C2CD;" d="M372.673,100.291c-1.399-1.399-3.666-1.399-5.065,0l-2.287,2.287
					c-1.399,1.399-1.399,3.666,0,5.065c1.398,1.399,3.666,1.399,5.065,0l2.287-2.287
					C374.072,103.957,374.072,101.69,372.673,100.291z"/>
			</g>
			<g>
				<path style="fill:#D0C2CD;" d="M389.524,107.643c1.399-1.399,1.399-3.666,0-5.065l-2.287-2.287
					c-1.399-1.399-3.666-1.399-5.065,0c-1.399,1.399-1.399,3.666,0,5.065l2.287,2.287
					C385.858,109.041,388.125,109.041,389.524,107.643z"/>
				<path style="fill:#D0C2CD;" d="M372.673,90.792c1.399-1.399,1.399-3.666,0-5.065l-2.287-2.287c-1.399-1.399-3.666-1.399-5.065,0
					c-1.399,1.399-1.399,3.666,0,5.065l2.287,2.287C369.007,92.19,371.275,92.19,372.673,90.792z"/>
			</g>
		</g>
		<g>
			<g>
				<path style="fill:#D0C2CD;" d="M57.775,283.852c-1.399-1.399-3.666-1.399-5.065,0l-2.287,2.287
					c-1.399,1.399-1.399,3.666,0,5.065c1.399,1.399,3.666,1.399,5.065,0l2.287-2.287C59.174,287.518,59.174,285.25,57.775,283.852z"
					/>
				<path style="fill:#D0C2CD;" d="M40.924,300.702c-1.399-1.399-3.666-1.399-5.065,0l-2.287,2.287
					c-1.399,1.399-1.399,3.666,0,5.065c1.399,1.399,3.666,1.399,5.065,0l2.287-2.287C42.323,304.368,42.323,302.101,40.924,300.702z
					"/>
			</g>
			<g>
				<path style="fill:#D0C2CD;" d="M57.775,308.054c1.399-1.399,1.399-3.666,0-5.065l-2.287-2.287c-1.399-1.399-3.666-1.399-5.065,0
					c-1.399,1.399-1.399,3.666,0,5.065l2.287,2.287C54.109,309.453,56.376,309.453,57.775,308.054z"/>
				<path style="fill:#D0C2CD;" d="M40.924,291.203c1.399-1.399,1.399-3.666,0-5.065l-2.287-2.287c-1.399-1.399-3.666-1.399-5.065,0
					c-1.399,1.399-1.399,3.666,0,5.065l2.287,2.287C37.258,292.602,39.526,292.602,40.924,291.203z"/>
			</g>
		</g>
	</g>
	<path style="fill:#400100;" d="M452.14,411.707H47.86c-1.978,0-3.581,1.603-3.581,3.581v0c0,1.978,1.603,3.581,3.581,3.581H452.14
		c1.978,0,3.581-1.604,3.581-3.581v0C455.722,413.311,454.118,411.707,452.14,411.707z"/>
</g>
</svg>
